<svg xmlns="http://www.w3.org/2000/svg" width="29.795" height="28.663" viewBox="0 0 29.795 28.663"><defs><style>.a{fill:#cc4c6e;}.b{fill:none;}</style></defs><path class="a" d="M14.215,2C8.027,2,3,6.659,3,12.393S8.027,22.786,14.215,22.786h.66v3.668c6.412-2.861,10.555-8.559,10.555-14.061C25.429,6.659,20.4,2,14.215,2Zm1.319,17.729H12.9V17.284h2.639Zm0-4.279H12.9c0-3.974,3.958-3.668,3.958-6.114a2.555,2.555,0,0,0-2.639-2.445,2.555,2.555,0,0,0-2.639,2.445H8.937a5.094,5.094,0,0,1,5.277-4.891,5.094,5.094,0,0,1,5.277,4.891C19.492,12.393,15.534,12.7,15.534,15.45Z" transform="translate(0.157 0.104)"/><path class="b" d="M0,0H29.795V28.663H0Z"/></svg>