<svg xmlns="http://www.w3.org/2000/svg" width="24.626" height="24.626" viewBox="0 0 24.626 24.626"><defs><style>.a{fill:#cc4c6e;}.b{fill:none;}</style></defs><path class="a" d="M7.157,18.418A2.052,2.052,0,1,0,9.209,20.47,2.049,2.049,0,0,0,7.157,18.418ZM1,2V4.052H3.052L6.746,11.84,5.361,14.354a1.984,1.984,0,0,0-.257.985,2.058,2.058,0,0,0,2.052,2.052H19.47V15.339H7.588a.254.254,0,0,1-.257-.257l.031-.123.923-1.673H15.93a2.042,2.042,0,0,0,1.8-1.057L21.4,5.571a1,1,0,0,0,.123-.493A1.029,1.029,0,0,0,20.5,4.052H5.32L4.355,2H1ZM17.418,18.418A2.052,2.052,0,1,0,19.47,20.47,2.049,2.049,0,0,0,17.418,18.418Z" transform="translate(0.026 0.052)"/><path class="b" d="M0,0H24.626V24.626H0Z"/></svg>