<svg xmlns="http://www.w3.org/2000/svg" width="192.735" height="38" viewBox="0 0 192.735 38"><defs><style>.a{fill:#cc4c6e;}.b{fill:#f3b541;}.c{fill:#4cb3aa;}.d{fill:#842c68;}</style></defs><g transform="translate(-0.042 0.02)"><path class="a" d="M29.319,37.9h0a5.84,5.84,0,0,1-6.671-4.747L18.157,6.728A5.84,5.84,0,0,1,22.9.057h0A5.84,5.84,0,0,1,29.575,4.8l4.49,26.429A5.84,5.84,0,0,1,29.319,37.9Z" transform="translate(-6.468 0)"/><path class="a" d="M54.409,37.9h0a5.84,5.84,0,0,1-6.671-4.747L43.247,6.728A5.747,5.747,0,0,1,47.93.057h0A5.84,5.84,0,0,1,54.6,4.8l4.49,26.429A5.747,5.747,0,0,1,54.409,37.9Z" transform="translate(-15.456 0)"/><path class="b" d="M3.479,37.477h0A5.814,5.814,0,0,1,.528,29.843L12.139,3.479A5.814,5.814,0,0,1,19.772.528h0a5.814,5.814,0,0,1,2.951,7.633L11.048,34.526A5.709,5.709,0,0,1,3.479,37.477Z" transform="translate(0 -0.022)"/><path class="c" d="M28.479,37.477h0a5.814,5.814,0,0,1-2.951-7.633L37.139,3.479A5.814,5.814,0,0,1,44.772.528h0a5.814,5.814,0,0,1,2.951,7.633L36.112,34.526A5.8,5.8,0,0,1,28.479,37.477Z" transform="translate(-8.963 -0.022)"/><path class="d" d="M53.479,37.477h0a5.814,5.814,0,0,1-2.951-7.633L62.2,3.479A5.814,5.814,0,0,1,69.836.528h0a5.814,5.814,0,0,1,2.951,7.633L61.112,34.526A5.76,5.76,0,0,1,53.479,37.477Z" transform="translate(-17.927 -0.022)"/><g transform="translate(63.777 11.219)"><path d="M100.683,18.285a.37.37,0,0,1,.385-.385h.257c.257,0,.385.064.449.321l4.747,10.2c.385.834.834,1.86.834,1.86h.064s.449-1.09.834-1.86L113,18.221a.482.482,0,0,1,.449-.321h.257a.34.34,0,0,1,.385.385l1.283,15.908c0,.257-.128.449-.385.449H114.8a.34.34,0,0,1-.385-.385l-1.026-12.38c-.064-.834-.064-2.245-.064-2.245h-.064s-.449,1.411-.834,2.245l-4.3,9.237a.482.482,0,0,1-.449.321h-.385c-.257,0-.385-.064-.449-.321l-4.3-9.237c-.385-.77-.9-2.245-.9-2.245h-.064s0,1.475-.064,2.245l-1.091,12.445a.37.37,0,0,1-.385.385h-.257c-.257,0-.385-.128-.385-.449Z" transform="translate(-99.4 -17.643)"/><path d="M134.138,18.321a.41.41,0,0,1,.449-.321h.449a.41.41,0,0,1,.449.321l5.966,15.908c.064.257,0,.449-.321.449h-.257a.41.41,0,0,1-.449-.321L138.308,28.9h-7.056L129.2,34.357a.41.41,0,0,1-.449.321h-.257c-.321,0-.449-.192-.321-.449Zm3.849,9.622-2.566-6.8c-.257-.706-.641-1.989-.641-1.989h-.064s-.385,1.283-.641,1.989l-2.566,6.8Z" transform="translate(-109.698 -17.679)"/><path d="M154.338,27.43l-5.388-8.981c-.192-.257-.064-.449.257-.449h.257a.429.429,0,0,1,.449.257l3.785,6.351c.449.834,1.026,1.86,1.026,1.86h.064a17.383,17.383,0,0,1,1.026-1.86l3.785-6.351a.484.484,0,0,1,.449-.257h.257c.321,0,.449.192.257.449l-5.388,8.981v6.864a.34.34,0,0,1-.385.385h-.064a.34.34,0,0,1-.385-.385Z" transform="translate(-117.133 -17.679)"/><path d="M172.2,18.385a.34.34,0,0,1,.385-.385h.257a.583.583,0,0,1,.513.257L182.72,31.15c.577.77,1.347,2.117,1.347,2.117h.064S184,31.984,184,31.15V18.385a.34.34,0,0,1,.385-.385h.192a.34.34,0,0,1,.385.385V34.293a.34.34,0,0,1-.385.385h-.257a.583.583,0,0,1-.513-.257l-9.365-12.894c-.577-.77-1.347-2.117-1.347-2.117h-.064s.128,1.283.128,2.117v12.7a.34.34,0,0,1-.385.385h-.192a.34.34,0,0,1-.385-.385Z" transform="translate(-125.501 -17.679)"/><path d="M206.567,17.5a8.354,8.354,0,0,1,8.467,8.532,8.473,8.473,0,1,1-16.935,0A8.354,8.354,0,0,1,206.567,17.5Zm0,16.357c4.234,0,7.377-3.4,7.377-7.826a7.379,7.379,0,1,0-14.754,0C199.191,30.458,202.334,33.857,206.567,33.857Z" transform="translate(-134.787 -17.5)"/><path d="M237.067,17.5a8.354,8.354,0,0,1,8.467,8.532,8.473,8.473,0,1,1-16.935,0A8.354,8.354,0,0,1,237.067,17.5Zm0,16.357c4.234,0,7.377-3.4,7.377-7.826a7.379,7.379,0,1,0-14.754,0C229.69,30.458,232.834,33.857,237.067,33.857Z" transform="translate(-145.722 -17.5)"/><path d="M261.922,18.9h-5.837a.34.34,0,0,1-.385-.385v-.128a.34.34,0,0,1,.385-.385h12.7a.34.34,0,0,1,.385.385v.128a.34.34,0,0,1-.385.385h-5.837v15.4a.34.34,0,0,1-.385.385h-.257a.34.34,0,0,1-.385-.385Z" transform="translate(-155.438 -17.679)"/><path d="M280.8,18.385a.34.34,0,0,1,.385-.385h.192a.34.34,0,0,1,.385.385v7.441h10.713V18.385A.34.34,0,0,1,292.86,18h.192a.34.34,0,0,1,.385.385V34.293a.34.34,0,0,1-.385.385h-.192a.34.34,0,0,1-.385-.385V26.788H281.826v7.505a.34.34,0,0,1-.385.385h-.192a.34.34,0,0,1-.385-.385V18.385Z" transform="translate(-164.437 -17.679)"/></g></g></svg>